<svg width="24" height="24" viewBox="0 0 24 24" fill="none" xmlns="http://www.w3.org/2000/svg">
<mask id="path-2-inside-1_51_2278" fill="white">
<path d="M17.1251 8.97401C17.1251 8.59552 16.9779 8.23535 16.7201 7.97232C16.4627 7.70982 16.1168 7.56524 15.7596 7.56522H5.01762C4.66057 7.56528 4.31501 7.70989 4.0577 7.97232C3.79982 8.23536 3.65213 8.59546 3.65213 8.97401V15.5477C3.65213 15.9263 3.79982 16.2864 4.0577 16.5494C4.31501 16.8119 4.66057 16.9565 5.01762 16.9565H15.7596C16.1168 16.9565 16.4627 16.8119 16.7201 16.5494C16.9779 16.2864 17.1251 15.9262 17.1251 15.5477V8.97401ZM20.3478 13.9046V10.6172C20.3479 10.1851 20.6982 9.83458 21.1304 9.83458C21.5625 9.83458 21.9129 10.1851 21.913 10.6172V13.9046C21.9129 14.3367 21.5625 14.6872 21.1304 14.6872C20.6982 14.6872 20.3479 14.3367 20.3478 13.9046ZM18.6903 15.5477C18.6903 16.3315 18.3853 17.0865 17.8374 17.6454C17.289 18.2047 16.5419 18.5217 15.7596 18.5217H5.01762C4.23534 18.5217 3.48819 18.2047 2.93984 17.6454C2.39194 17.0865 2.08691 16.3315 2.08691 15.5477V8.97401C2.08691 8.19023 2.39194 7.43521 2.93984 6.87636C3.48819 6.31707 4.23534 6.00006 5.01762 6H15.7596C16.5419 6.00002 17.289 6.31708 17.8374 6.87636C18.3853 7.43521 18.6903 8.19023 18.6903 8.97401V15.5477Z"/>
<path d="M5.99996 15.6522C5.42366 15.6522 4.95648 15.1863 4.95648 14.61C4.95648 13.3369 4.95648 11.1945 4.95648 9.91165C4.95648 9.33535 5.42366 8.86957 5.99996 8.86957H13.826C14.4023 8.86957 14.8695 9.33675 14.8695 9.91304V14.6087C14.8695 15.185 14.4023 15.6522 13.826 15.6522H5.99996Z"/>
</mask>
<path d="M17.1251 8.97401C17.1251 8.59552 16.9779 8.23535 16.7201 7.97232C16.4627 7.70982 16.1168 7.56524 15.7596 7.56522H5.01762C4.66057 7.56528 4.31501 7.70989 4.0577 7.97232C3.79982 8.23536 3.65213 8.59546 3.65213 8.97401V15.5477C3.65213 15.9263 3.79982 16.2864 4.0577 16.5494C4.31501 16.8119 4.66057 16.9565 5.01762 16.9565H15.7596C16.1168 16.9565 16.4627 16.8119 16.7201 16.5494C16.9779 16.2864 17.1251 15.9262 17.1251 15.5477V8.97401ZM20.3478 13.9046V10.6172C20.3479 10.1851 20.6982 9.83458 21.1304 9.83458C21.5625 9.83458 21.9129 10.1851 21.913 10.6172V13.9046C21.9129 14.3367 21.5625 14.6872 21.1304 14.6872C20.6982 14.6872 20.3479 14.3367 20.3478 13.9046ZM18.6903 15.5477C18.6903 16.3315 18.3853 17.0865 17.8374 17.6454C17.289 18.2047 16.5419 18.5217 15.7596 18.5217H5.01762C4.23534 18.5217 3.48819 18.2047 2.93984 17.6454C2.39194 17.0865 2.08691 16.3315 2.08691 15.5477V8.97401C2.08691 8.19023 2.39194 7.43521 2.93984 6.87636C3.48819 6.31707 4.23534 6.00006 5.01762 6H15.7596C16.5419 6.00002 17.289 6.31708 17.8374 6.87636C18.3853 7.43521 18.6903 8.19023 18.6903 8.97401V15.5477Z" fill="#F5F5F5"/>
<path d="M5.99996 15.6522C5.42366 15.6522 4.95648 15.1863 4.95648 14.61C4.95648 13.3369 4.95648 11.1945 4.95648 9.91165C4.95648 9.33535 5.42366 8.86957 5.99996 8.86957H13.826C14.4023 8.86957 14.8695 9.33675 14.8695 9.91304V14.6087C14.8695 15.185 14.4023 15.6522 13.826 15.6522H5.99996Z" fill="#F5F5F5"/>
<path d="M16.7201 7.97232L17.4342 7.27234L17.4341 7.27225L16.7201 7.97232ZM15.7596 7.56522L15.7597 6.56522H15.7596V7.56522ZM5.01762 7.56522V6.56522H5.01744L5.01762 7.56522ZM4.0577 7.97232L3.34366 7.27221L3.34363 7.27225L4.0577 7.97232ZM4.0577 16.5494L3.34363 17.2495L3.34366 17.2495L4.0577 16.5494ZM5.01762 16.9565L5.01744 17.9565H5.01762V16.9565ZM15.7596 16.9565V17.9565H15.7597L15.7596 16.9565ZM16.7201 16.5494L17.4341 17.2495L17.4342 17.2494L16.7201 16.5494ZM20.3478 13.9046H19.3478V13.9048L20.3478 13.9046ZM20.3478 10.6172L19.3478 10.6169V10.6172H20.3478ZM21.913 10.6172H22.913V10.6169L21.913 10.6172ZM21.913 13.9046L22.913 13.9048V13.9046H21.913ZM17.8374 17.6454L18.5515 18.3455L18.5515 18.3455L17.8374 17.6454ZM15.7596 18.5217V19.5217H15.7597L15.7596 18.5217ZM5.01762 18.5217L5.01754 19.5217H5.01762V18.5217ZM2.93984 17.6454L2.22576 18.3455L2.22578 18.3455L2.93984 17.6454ZM2.93984 6.87636L2.22578 6.17627L2.22576 6.17629L2.93984 6.87636ZM5.01762 6V5H5.01754L5.01762 6ZM15.7596 6L15.7597 5H15.7596V6ZM17.8374 6.87636L18.5515 6.17629L18.5515 6.17624L17.8374 6.87636ZM17.1251 8.97401H18.1251C18.1251 8.33724 17.8777 7.72476 17.4342 7.27234L16.7201 7.97232L16.0059 8.67229C16.0781 8.74594 16.1251 8.8538 16.1251 8.97401H17.1251ZM16.7201 7.97232L17.4341 7.27225C16.9907 6.81989 16.3882 6.56526 15.7597 6.56522L15.7596 7.56522L15.7596 8.56522C15.8453 8.56522 15.9348 8.59975 16.006 8.67239L16.7201 7.97232ZM15.7596 7.56522V6.56522H5.01762V7.56522V8.56522H15.7596V7.56522ZM5.01762 7.56522L5.01744 6.56522C4.38875 6.56533 3.78684 6.82021 3.34366 7.27221L4.0577 7.97232L4.77174 8.67242C4.84318 8.59956 4.93239 8.56523 5.0178 8.56522L5.01762 7.56522ZM4.0577 7.97232L3.34363 7.27225C2.90061 7.72412 2.65213 8.33634 2.65213 8.97401H3.65213H4.65213C4.65213 8.85458 4.69902 8.7466 4.77178 8.67239L4.0577 7.97232ZM3.65213 8.97401H2.65213V15.5477H3.65213H4.65213V8.97401H3.65213ZM3.65213 15.5477H2.65213C2.65213 16.1854 2.90061 16.7976 3.34363 17.2495L4.0577 16.5494L4.77178 15.8494C4.69902 15.7751 4.65213 15.6672 4.65213 15.5477H3.65213ZM4.0577 16.5494L3.34366 17.2495C3.78684 17.7015 4.38875 17.9564 5.01744 17.9565L5.01762 16.9565L5.0178 15.9565C4.93239 15.9565 4.84318 15.9222 4.77174 15.8493L4.0577 16.5494ZM5.01762 16.9565V17.9565H15.7596V16.9565V15.9565H5.01762V16.9565ZM15.7596 16.9565L15.7597 17.9565C16.3882 17.9565 16.9907 17.7019 17.4341 17.2495L16.7201 16.5494L16.006 15.8494C15.9348 15.922 15.8453 15.9565 15.7596 15.9565L15.7596 16.9565ZM16.7201 16.5494L17.4342 17.2494C17.8777 16.797 18.1251 16.1845 18.1251 15.5477H17.1251H16.1251C16.1251 15.6679 16.0781 15.7758 16.0059 15.8494L16.7201 16.5494ZM17.1251 15.5477H18.1251V8.97401H17.1251H16.1251V15.5477H17.1251ZM20.3478 13.9046H21.3478V10.6172H20.3478H19.3478V13.9046H20.3478ZM20.3478 10.6172L21.3478 10.6174C21.3478 10.7371 21.2508 10.8346 21.1304 10.8346V9.83458V8.83458C20.1457 8.83458 19.348 9.63297 19.3478 10.6169L20.3478 10.6172ZM21.1304 9.83458V10.8346C21.01 10.8346 20.913 10.7371 20.913 10.6174L21.913 10.6172L22.913 10.6169C22.9128 9.63297 22.1151 8.83458 21.1304 8.83458V9.83458ZM21.913 10.6172H20.913V13.9046H21.913H22.913V10.6172H21.913ZM21.913 13.9046L20.913 13.9043C20.913 13.7846 21.01 13.6872 21.1304 13.6872V14.6872V15.6872C22.1151 15.6872 22.9128 14.8888 22.913 13.9048L21.913 13.9046ZM21.1304 14.6872V13.6872C21.2508 13.6872 21.3478 13.7846 21.3478 13.9043L20.3478 13.9046L19.3478 13.9048C19.348 14.8888 20.1457 15.6872 21.1304 15.6872V14.6872ZM18.6903 15.5477H17.6903C17.6903 16.0728 17.4858 16.5756 17.1234 16.9453L17.8374 17.6454L18.5515 18.3455C19.2848 17.5975 19.6903 16.5902 19.6903 15.5477H18.6903ZM17.8374 17.6454L17.1234 16.9453C16.761 17.3149 16.2703 17.5217 15.7596 17.5217L15.7596 18.5217L15.7597 19.5217C16.8136 19.5217 17.8171 19.0944 18.5515 18.3455L17.8374 17.6454ZM15.7596 18.5217V17.5217H5.01762V18.5217V19.5217H15.7596V18.5217ZM5.01762 18.5217L5.0177 17.5217C4.50695 17.5217 4.01624 17.3149 3.65389 16.9453L2.93984 17.6454L2.22578 18.3455C2.96013 19.0945 3.96373 19.5217 5.01754 19.5217L5.01762 18.5217ZM2.93984 17.6454L3.65391 16.9453C3.29145 16.5756 3.08691 16.0728 3.08691 15.5477H2.08691H1.08691C1.08691 16.5902 1.49243 17.5975 2.22576 18.3455L2.93984 17.6454ZM2.08691 15.5477H3.08691V8.97401H2.08691H1.08691V15.5477H2.08691ZM2.08691 8.97401H3.08691C3.08691 8.44891 3.29145 7.94614 3.65391 7.57643L2.93984 6.87636L2.22576 6.17629C1.49243 6.92428 1.08691 7.93155 1.08691 8.97401H2.08691ZM2.93984 6.87636L3.65389 7.57645C4.01624 7.20687 4.50695 7.00004 5.0177 7L5.01762 6L5.01754 5C3.96373 5.00009 2.96013 5.42727 2.22578 6.17627L2.93984 6.87636ZM5.01762 6V7H15.7596V6V5H5.01762V6ZM15.7596 6L15.7596 7C16.2703 7.00002 16.761 7.20684 17.1234 7.57647L17.8374 6.87636L18.5515 6.17624C17.8171 5.42733 16.8136 5.00003 15.7597 5L15.7596 6ZM17.8374 6.87636L17.1234 7.57643C17.4858 7.94614 17.6903 8.44891 17.6903 8.97401H18.6903H19.6903C19.6903 7.93155 19.2848 6.92428 18.5515 6.17629L17.8374 6.87636ZM18.6903 8.97401H17.6903V15.5477H18.6903H19.6903V8.97401H18.6903ZM5.99996 8.86957V9.86957H13.826V8.86957V7.86957H5.99996V8.86957ZM14.8695 9.91304H13.8695V14.6087H14.8695H15.8695V9.91304H14.8695ZM13.826 15.6522V14.6522H5.99996V15.6522V16.6522H13.826V15.6522ZM4.95648 14.6101H5.95648C5.95648 13.3052 5.95648 11.2261 5.95648 9.91165H4.95648H3.95648C3.95648 11.2261 3.95648 13.3052 3.95648 14.6101H4.95648ZM14.8695 14.6087H13.8695C13.8695 14.6327 13.8501 14.6522 13.826 14.6522V15.6522V16.6522C14.9546 16.6522 15.8695 15.7373 15.8695 14.6087H14.8695ZM13.826 8.86957V9.86957C13.8501 9.86957 13.8695 9.88903 13.8695 9.91304H14.8695H15.8695C15.8695 8.78446 14.9546 7.86957 13.826 7.86957V8.86957ZM5.99996 8.86957V7.86957C4.87312 7.86957 3.95648 8.78133 3.95648 9.91165H4.95648H5.95648C5.95648 9.88938 5.9742 9.86957 5.99996 9.86957V8.86957ZM5.99996 15.6522V14.6522C5.97425 14.6522 5.95648 14.6324 5.95648 14.6101H4.95648H3.95648C3.95648 15.7403 4.87307 16.6522 5.99996 16.6522V15.6522Z" fill="#F5F5F5" mask="url(#path-2-inside-1_51_2278)"/>
</svg>
